<?xml version="1.0" encoding="UTF-8" standalone="no"?>
<!-- Generator: Adobe Illustrator 18.1.0, SVG Export Plug-In . SVG Version: 6.00 Build 0)  -->

<svg
   version="1.1"
   id="Layer_1"
   x="0px"
   y="0px"
   viewBox="0 0 512 512"
   enable-background="new 0 0 612 792"
   xml:space="preserve"
   sodipodi:docname="OpenPnP-logo-expanded.svg"
   inkscape:version="1.2.2 (732a01da63, 2022-12-09)"
   width="512"
   height="512"
   xmlns:inkscape="http://www.inkscape.org/namespaces/inkscape"
   xmlns:sodipodi="http://sodipodi.sourceforge.net/DTD/sodipodi-0.dtd"
   xmlns="http://www.w3.org/2000/svg"
   xmlns:svg="http://www.w3.org/2000/svg"><defs
   id="defs972" /><sodipodi:namedview
   id="namedview970"
   pagecolor="#ffffff"
   bordercolor="#666666"
   borderopacity="1.0"
   inkscape:pageshadow="2"
   inkscape:pageopacity="0.0"
   inkscape:pagecheckerboard="0"
   showgrid="false"
   inkscape:zoom="1.3808594"
   inkscape:cx="-533.00141"
   inkscape:cy="258.17256"
   inkscape:window-width="1920"
   inkscape:window-height="1018"
   inkscape:window-x="-6"
   inkscape:window-y="-6"
   inkscape:window-maximized="1"
   inkscape:current-layer="Layer_1"
   inkscape:showpageshadow="2"
   inkscape:deskcolor="#d1d1d1"><inkscape:page
     x="0"
     y="0"
     width="512"
     height="512"
     id="page3021"
     inkscape:export-filename="Page 1.png"
     inkscape:export-xdpi="600"
     inkscape:export-ydpi="600" /><inkscape:page
     x="-1045.3607"
     y="2.0618529"
     width="1024"
     height="512"
     id="page3210"
     inkscape:export-filename="Page 2.png"
     inkscape:export-xdpi="600"
     inkscape:export-ydpi="600" /></sodipodi:namedview>






















<path
   id="path3986"
   style="font-weight:500;font-size:188.378px;font-family:Futura;-inkscape-font-specification:'Futura Medium';letter-spacing:5.94395px;fill:#af1f23;stroke-width:21.8105"
   d="M -726.98633 211.41211 C -753.35922 211.41211 -774.08008 231.75709 -774.08008 258.31836 C -774.08008 281.5872 -758.1775 300.0822 -736.50391 304.31055 L -736.50391 287.42969 C -748.5381 283.2976 -757.12695 271.59856 -757.12695 258.31836 C -757.12695 241.55274 -743.75195 227.61133 -726.98633 227.61133 C -710.22069 227.61133 -696.8457 241.55274 -696.8457 258.31836 C -696.8457 271.59856 -705.4326 283.2976 -717.4668 287.42969 L -717.4668 304.31055 C -695.79416 300.0815 -679.89062 281.58653 -679.89062 258.31836 C -679.89062 231.75709 -700.61342 211.41211 -726.98633 211.41211 z " /><path
   d="m -615.92661,290.15337 c -17.89591,0 -27.87994,-15.44699 -27.87994,-32.02426 0,-16.38889 10.36079,-31.6475 27.87994,-31.6475 18.27267,0 28.63346,14.5051 28.63346,31.6475 0,17.33078 -10.17241,32.02426 -28.63346,32.02426 z m -26.93805,-76.10471 h -16.95402 v 138.64621 h 16.95402 v -64.2369 h 0.37675 c 6.78161,9.98403 17.51916,16.76564 29.95211,16.76564 27.12643,0 42.19667,-22.41698 42.19667,-47.65963 0,-24.11239 -16.01213,-46.15261 -41.44316,-46.15261 -13.18646,0 -23.73563,6.7816 -30.70562,17.33077 h -0.37675 z"
   style="font-weight:500;font-size:188.378px;font-family:Futura;-inkscape-font-specification:'Futura Medium';letter-spacing:5.94395px;fill:#af1f23;stroke-width:21.8105"
   id="path3988" /><path
   d="m -470.39459,260.95478 v -2.63729 c 0,-26.18454 -13.18646,-46.90612 -41.25479,-46.90612 -28.44508,0 -42.95018,20.34482 -42.95018,47.47125 0,25.99617 16.38888,46.34099 43.32694,46.34099 17.1424,0 32.58939,-8.85376 40.87803,-24.11238 l -14.31673,-8.10026 c -6.40485,10.54917 -13.37484,17.1424 -26.37292,17.1424 -16.20051,0 -26.37292,-14.12835 -26.5613,-29.19859 z m -66.30906,-12.8097 c 2.07216,-12.62133 11.86781,-22.04023 25.05427,-22.04023 13.56322,0 22.22861,8.85377 24.30077,22.04023 z"
   style="font-weight:500;font-size:188.378px;font-family:Futura;-inkscape-font-specification:'Futura Medium';letter-spacing:5.94395px;fill:#af1f23;stroke-width:21.8105"
   id="path3990" /><path
   d="m -432.99136,214.04866 h -16.95402 v 88.1609 h 16.95402 v -40.50127 c 0,-16.01213 0,-35.22668 21.85185,-35.22668 17.33078,0 19.40293,10.17241 19.40293,25.24265 v 50.4853 h 16.95402 V 249.6521 c 0,-21.47509 -6.40485,-38.24073 -31.27075,-38.24073 -10.73754,0 -21.28671,5.0862 -26.56129,14.5051 h -0.37676 z"
   style="font-weight:500;font-size:188.378px;font-family:Futura;-inkscape-font-specification:'Futura Medium';letter-spacing:5.94395px;fill:#af1f23;stroke-width:21.8105"
   id="path3992" /><g
   aria-label="pnp"
   id="text963-6-6-5-1"
   style="font-size:94.1888px;letter-spacing:5.94395px;display:inline;fill:#1b6597;stroke-width:7.84907"><path
     d="m -302.5231,290.15337 c -17.89592,0 -27.87995,-15.44699 -27.87995,-32.02426 0,-16.38889 10.36079,-31.6475 27.87995,-31.6475 18.27266,0 28.63345,14.5051 28.63345,31.6475 0,17.33078 -10.17241,32.02426 -28.63345,32.02426 z m -26.93806,-76.10471 h -16.95402 v 138.64621 h 16.95402 v -64.2369 h 0.37676 c 6.7816,9.98403 17.51915,16.76564 29.9521,16.76564 27.12643,0 42.19667,-22.41698 42.19667,-47.65963 0,-24.11239 -16.01213,-46.15261 -41.44316,-46.15261 -13.18646,0 -23.73563,6.7816 -30.70561,17.33077 h -0.37676 z"
     style="font-weight:500;font-size:188.378px;font-family:Futura;-inkscape-font-specification:'Futura Medium';stroke-width:21.8105"
     id="path3995" /><path
     d="m -217.46044,214.04866 h -16.95402 v 88.1609 h 16.95402 v -40.50127 c 0,-16.01213 0,-35.22668 21.85185,-35.22668 17.33078,0 19.40294,10.17241 19.40294,25.24265 v 50.4853 h 16.95402 V 249.6521 c 0,-21.47509 -6.40486,-38.24073 -31.27075,-38.24073 -10.73755,0 -21.28672,5.0862 -26.5613,14.5051 h -0.37676 z"
     style="font-weight:500;font-size:188.378px;font-family:Futura;-inkscape-font-specification:'Futura Medium';stroke-width:21.8105"
     id="path3997" /><path
     d="m -87.375247,290.15337 c -17.895913,0 -27.879943,-15.44699 -27.879943,-32.02426 0,-16.38889 10.36079,-31.6475 27.879943,-31.6475 18.272667,0 28.633457,14.5051 28.633457,31.6475 0,17.33078 -10.172412,32.02426 -28.633457,32.02426 z M -114.3133,214.04866 h -16.95402 v 138.64621 h 16.95402 v -64.2369 h 0.37675 c 6.78161,9.98403 17.519159,16.76564 29.952107,16.76564 27.126433,0 42.196673,-22.41698 42.196673,-47.65963 0,-24.11239 -16.01213,-46.15261 -41.443161,-46.15261 -13.18646,0 -23.735629,6.7816 -30.705619,17.33077 h -0.37675 z"
     style="font-weight:500;font-size:188.378px;font-family:Futura;-inkscape-font-specification:'Futura Medium';stroke-width:21.8105"
     id="path3999" /></g><g
   id="g3642-9-9"
   transform="matrix(3.8999861,0,0,3.8999861,-2150.2909,-1252.6222)"
   style="display:inline"><g
     id="g949-3-4-4"
     transform="translate(-135.74571,118.65625)"><rect
       id="svg_2_16_-2-1-7"
       x="424.29999"
       y="257.10001"
       fill="#1a6596"
       width="8.3000002"
       height="3.3" /><rect
       id="svg_2_15_-4-9-1"
       x="424.29999"
       y="263.79999"
       fill="#1a6596"
       width="8.3000002"
       height="3.3" /><rect
       id="svg_2_14_-8-1-7"
       x="424.29999"
       y="270.39999"
       fill="#1a6596"
       width="8.3000002"
       height="3.3" /><rect
       id="svg_2_13_-8-9-6"
       x="424.29999"
       y="277"
       fill="#1a6596"
       width="8.3000002"
       height="3.3" /><rect
       id="svg_2_12_-5-0-3"
       x="465.60001"
       y="257.10001"
       fill="#1a6596"
       width="8.3000002"
       height="3.3" /><rect
       id="svg_2_11_-7-2-9"
       x="465.60001"
       y="263.79999"
       fill="#1a6596"
       width="8.3000002"
       height="3.3" /><rect
       id="svg_2_10_-1-6-5"
       x="465.60001"
       y="270.39999"
       fill="#1a6596"
       width="8.3000002"
       height="3.3" /><rect
       id="svg_2_9_-7-0-6"
       x="465.60001"
       y="277"
       fill="#1a6596"
       width="8.3000002"
       height="3.3" /><rect
       id="svg_2_8_-8-2-7"
       x="437.5"
       y="285.20001"
       fill="#1a6596"
       width="3.3"
       height="8.3000002" /><rect
       id="svg_2_7_-9-0-5"
       x="444.10001"
       y="285.20001"
       fill="#1a6596"
       width="3.3"
       height="8.3000002" /><rect
       id="svg_2_6_-5-8-4"
       x="450.70001"
       y="285.20001"
       fill="#1a6596"
       width="3.3"
       height="8.3000002" /><rect
       id="svg_2_5_-1-6-0"
       x="457.39999"
       y="285.20001"
       fill="#1a6596"
       width="3.3"
       height="8.3000002" /><rect
       id="svg_2_4_-8-1-2"
       x="437.5"
       y="243.89999"
       fill="#1a6596"
       width="3.3"
       height="8.3000002" /><rect
       id="svg_2_3_-2-2-6"
       x="444.10001"
       y="243.89999"
       fill="#1a6596"
       width="3.3"
       height="8.3000002" /><rect
       id="svg_2_2_-1-2-0"
       x="450.70001"
       y="243.89999"
       fill="#1a6596"
       width="3.3"
       height="8.3000002" /><rect
       id="svg_2_1_-3-4-3"
       x="457.39999"
       y="243.89999"
       fill="#1a6596"
       width="3.3"
       height="8.3000002" /></g><g
     id="g957-1-1-0"
     transform="translate(-135.74571,118.65625)"><g
       id="g955-7-3-7"><line
         fill="none"
         stroke="#af1f23"
         stroke-miterlimit="10"
         x1="437.5"
         y1="268.70001"
         x2="460.70001"
         y2="268.70001"
         id="line951-5-3-1" /><line
         fill="none"
         stroke="#af1f23"
         stroke-miterlimit="10"
         x1="449.10001"
         y1="280.29999"
         x2="449.10001"
         y2="257.10001"
         id="line953-1-9-3" /></g></g></g><g
   id="g3642-9-8-9"
   transform="matrix(4.7227607,0,0,4.7227607,-1229.5174,-1638.7294)"
   style="display:inline"><g
     id="g949-3-4-5-2"
     transform="translate(-135.74571,118.65625)"><rect
       id="svg_2_16_-2-1-0-6"
       x="424.29999"
       y="257.10001"
       fill="#1a6596"
       width="8.3000002"
       height="3.3" /><rect
       id="svg_2_15_-4-9-8-9"
       x="424.29999"
       y="263.79999"
       fill="#1a6596"
       width="8.3000002"
       height="3.3" /><rect
       id="svg_2_14_-8-1-3-8"
       x="424.29999"
       y="270.39999"
       fill="#1a6596"
       width="8.3000002"
       height="3.3" /><rect
       id="svg_2_13_-8-9-2-6"
       x="424.29999"
       y="277"
       fill="#1a6596"
       width="8.3000002"
       height="3.3" /><rect
       id="svg_2_12_-5-0-7-4"
       x="465.60001"
       y="257.10001"
       fill="#1a6596"
       width="8.3000002"
       height="3.3" /><rect
       id="svg_2_11_-7-2-0-3"
       x="465.60001"
       y="263.79999"
       fill="#1a6596"
       width="8.3000002"
       height="3.3" /><rect
       id="svg_2_10_-1-6-3-2"
       x="465.60001"
       y="270.39999"
       fill="#1a6596"
       width="8.3000002"
       height="3.3" /><rect
       id="svg_2_9_-7-0-7-9"
       x="465.60001"
       y="277"
       fill="#1a6596"
       width="8.3000002"
       height="3.3" /><rect
       id="svg_2_8_-8-2-3-8"
       x="437.5"
       y="285.20001"
       fill="#1a6596"
       width="3.3"
       height="8.3000002" /><rect
       id="svg_2_7_-9-0-8-6"
       x="444.10001"
       y="285.20001"
       fill="#1a6596"
       width="3.3"
       height="8.3000002" /><rect
       id="svg_2_6_-5-8-0-6"
       x="450.70001"
       y="285.20001"
       fill="#1a6596"
       width="3.3"
       height="8.3000002" /><rect
       id="svg_2_5_-1-6-5-1"
       x="457.39999"
       y="285.20001"
       fill="#1a6596"
       width="3.3"
       height="8.3000002" /><rect
       id="svg_2_4_-8-1-0-9"
       x="437.5"
       y="243.89999"
       fill="#1a6596"
       width="3.3"
       height="8.3000002" /><rect
       id="svg_2_3_-2-2-3-9"
       x="444.10001"
       y="243.89999"
       fill="#1a6596"
       width="3.3"
       height="8.3000002" /><rect
       id="svg_2_2_-1-2-9-9"
       x="450.70001"
       y="243.89999"
       fill="#1a6596"
       width="3.3"
       height="8.3000002" /><rect
       id="svg_2_1_-3-4-0-2"
       x="457.39999"
       y="243.89999"
       fill="#1a6596"
       width="3.3"
       height="8.3000002" /></g><g
     id="g957-1-1-1-3"
     transform="translate(-135.74571,118.65625)"><g
       id="g955-7-3-2-2"><line
         fill="none"
         stroke="#af1f23"
         stroke-miterlimit="10"
         x1="437.5"
         y1="268.70001"
         x2="460.70001"
         y2="268.70001"
         id="line951-5-3-4-6" /><line
         fill="none"
         stroke="#af1f23"
         stroke-miterlimit="10"
         x1="449.10001"
         y1="280.29999"
         x2="449.10001"
         y2="257.10001"
         id="line953-1-9-2-4" /></g></g></g><path
   id="path3874"
   style="font-weight:500;font-size:118.785px;font-family:Futura;-inkscape-font-specification:'Futura Medium';letter-spacing:3.74806px;fill:#af1f23;stroke-width:13.753"
   d="M 54.816406 349.375 C 38.186522 349.375 25.121094 362.2025 25.121094 378.95117 C 25.121094 393.6237 35.147842 405.28878 48.814453 407.95508 L 48.814453 397.31445 C 41.224859 394.7096 35.810547 387.32609 35.810547 378.95117 C 35.810547 368.37931 44.244551 359.58984 54.816406 359.58984 C 65.388261 359.58984 73.822266 368.37931 73.822266 378.95117 C 73.822266 387.32609 68.407953 394.7096 60.818359 397.31445 L 60.818359 407.95508 C 74.48497 405.28878 84.511719 393.6237 84.511719 378.95117 C 84.511719 362.2025 71.44629 349.375 54.816406 349.375 z " /><path
   d="m 124.84663,399.02642 c -11.28458,0 -17.58018,-9.74037 -17.58018,-20.19345 0,-10.33429 6.53317,-19.95588 17.58018,-19.95588 11.52214,0 18.05532,9.14645 18.05532,19.95588 0,10.92822 -6.41439,20.19345 -18.05532,20.19345 z M 107.86037,351.03728 H 97.16972 v 87.42576 h 10.69065 v -40.50568 h 0.23757 c 4.27626,6.2956 11.04701,10.57186 18.88682,10.57186 17.10504,0 26.60784,-14.13541 26.60784,-30.0526 0,-15.20448 -10.09673,-29.10233 -26.1327,-29.10233 -8.31495,0 -14.96691,4.27626 -19.36196,10.92822 h -0.23757 z"
   style="font-weight:500;font-size:118.785px;font-family:Futura;-inkscape-font-specification:'Futura Medium';letter-spacing:3.74806px;fill:#af1f23;stroke-width:13.753"
   id="path3876" /><path
   d="m 216.61435,380.61475 v -1.66299 c 0,-16.51112 -8.31495,-29.57747 -26.01392,-29.57747 -17.93653,0 -27.08298,12.82878 -27.08298,29.93382 0,16.39233 10.3343,29.22111 27.32055,29.22111 10.80944,0 20.54981,-5.58289 25.77635,-15.20448 l -9.02766,-5.10775 c -4.03869,6.65196 -8.43374,10.80943 -16.6299,10.80943 -10.21551,0 -16.6299,-8.90887 -16.74869,-18.41167 z m -41.81232,-8.07738 c 1.30663,-7.9586 7.48345,-13.89785 15.7984,-13.89785 8.55252,0 14.01663,5.5829 15.32327,13.89785 z"
   style="font-weight:500;font-size:118.785px;font-family:Futura;-inkscape-font-specification:'Futura Medium';letter-spacing:3.74806px;fill:#af1f23;stroke-width:13.753"
   id="path3878" /><path
   d="m 240.1996,351.03728 h -10.69065 v 55.59138 h 10.69065 v -25.53877 c 0,-10.09673 0,-22.2128 13.77906,-22.2128 10.92822,0 12.23486,6.41439 12.23486,15.91719 v 31.83438 h 10.69065 v -33.14101 c 0,-13.54149 -4.03869,-24.11336 -19.71831,-24.11336 -6.77075,0 -13.42271,3.2072 -16.74869,9.14645 h -0.23757 z"
   style="font-weight:500;font-size:118.785px;font-family:Futura;-inkscape-font-specification:'Futura Medium';letter-spacing:3.74806px;fill:#af1f23;stroke-width:13.753"
   id="path3880" /><g
   aria-label="pnp"
   id="text963-6-6-5-6-3"
   style="font-size:59.3924px;letter-spacing:3.74806px;display:inline;fill:#1b6597;stroke-width:4.94937"><path
     d="m 322.46878,399.02642 c -11.28458,0 -17.58018,-9.74037 -17.58018,-20.19345 0,-10.33429 6.53317,-19.95588 17.58018,-19.95588 11.52214,0 18.05532,9.14645 18.05532,19.95588 0,10.92822 -6.41439,20.19345 -18.05532,20.19345 z m -16.98626,-47.98914 h -10.69065 v 87.42576 h 10.69065 v -40.50568 h 0.23757 c 4.27626,6.2956 11.04701,10.57186 18.88682,10.57186 17.10504,0 26.60784,-14.13541 26.60784,-30.0526 0,-15.20448 -10.09673,-29.10233 -26.1327,-29.10233 -8.31495,0 -14.96691,4.27626 -19.36196,10.92822 h -0.23757 z"
     style="font-weight:500;font-size:118.785px;font-family:Futura;-inkscape-font-specification:'Futura Medium';stroke-width:13.753"
     id="path3883" /><path
     d="m 376.10651,351.03728 h -10.69065 v 55.59138 h 10.69065 v -25.53877 c 0,-10.09673 0,-22.2128 13.77906,-22.2128 10.92822,0 12.23486,6.41439 12.23486,15.91719 v 31.83438 h 10.69065 v -33.14101 c 0,-13.54149 -4.03869,-24.11336 -19.71831,-24.11336 -6.77075,0 -13.42271,3.2072 -16.74869,9.14645 h -0.23757 z"
     style="font-weight:500;font-size:118.785px;font-family:Futura;-inkscape-font-specification:'Futura Medium';stroke-width:13.753"
     id="path3885" /><path
     d="m 458.13397,399.02642 c -11.28458,0 -17.58018,-9.74037 -17.58018,-20.19345 0,-10.33429 6.53317,-19.95588 17.58018,-19.95588 11.52215,0 18.05532,9.14645 18.05532,19.95588 0,10.92822 -6.41439,20.19345 -18.05532,20.19345 z m -16.98626,-47.98914 h -10.69065 v 87.42576 h 10.69065 v -40.50568 h 0.23757 c 4.27626,6.2956 11.04701,10.57186 18.88682,10.57186 17.10504,0 26.60784,-14.13541 26.60784,-30.0526 0,-15.20448 -10.09672,-29.10233 -26.1327,-29.10233 -8.31495,0 -14.96691,4.27626 -19.36196,10.92822 h -0.23757 z"
     style="font-weight:500;font-size:118.785px;font-family:Futura;-inkscape-font-specification:'Futura Medium';stroke-width:13.753"
     id="path3887" /></g></svg>
