<?xml version="1.0" encoding="utf-8"?>
<!-- Generator: Adobe Illustrator 18.1.0, SVG Export Plug-In . SVG Version: 6.00 Build 0)  -->
<!DOCTYPE svg PUBLIC "-//W3C//DTD SVG 1.1//EN" "http://www.w3.org/Graphics/SVG/1.1/DTD/svg11.dtd">
<svg version="1.1" id="Layer_1" xmlns="http://www.w3.org/2000/svg" xmlns:xlink="http://www.w3.org/1999/xlink" x="0px" y="0px"
	 viewBox="0 0 612 792" enable-background="new 0 0 612 792" xml:space="preserve">
<path fill="#1A6596" stroke="#010101" stroke-width="2" d="M346,294.9c0,2.7-2.2,5-5,5h-52.1c-2.7,0-5-2.2-5-5v-52.1
	c0-2.7,2.2-5,5-5H341c2.7,0,5,2.2,5,5V294.9z"/>
<rect id="svg_2_239_" x="290.2" y="257.3" fill="#E9DAC4" width="8.3" height="3.3"/>
<rect id="svg_2_238_" x="290.2" y="263.9" fill="#E9DAC4" width="8.3" height="3.3"/>
<rect id="svg_2_237_" x="290.2" y="270.5" fill="#E9DAC4" width="8.3" height="3.3"/>
<rect id="svg_2_236_" x="290.2" y="277.2" fill="#E9DAC4" width="8.3" height="3.3"/>
<rect id="svg_2_235_" x="331.5" y="257.3" fill="#E9DAC4" width="8.3" height="3.3"/>
<rect id="svg_2_234_" x="331.5" y="263.9" fill="#E9DAC4" width="8.3" height="3.3"/>
<rect id="svg_2_233_" x="331.5" y="270.5" fill="#E9DAC4" width="8.3" height="3.3"/>
<rect id="svg_2_232_" x="331.5" y="277.2" fill="#E9DAC4" width="8.3" height="3.3"/>
<rect id="svg_2_231_" x="303.4" y="285.4" fill="#E9DAC4" width="3.3" height="8.3"/>
<rect id="svg_2_230_" x="310" y="285.4" fill="#E9DAC4" width="3.3" height="8.3"/>
<rect id="svg_2_229_" x="316.6" y="285.4" fill="#E9DAC4" width="3.3" height="8.3"/>
<rect id="svg_2_228_" x="323.3" y="285.4" fill="#E9DAC4" width="3.3" height="8.3"/>
<rect id="svg_2_227_" x="303.4" y="244.1" fill="#E9DAC4" width="3.3" height="8.3"/>
<rect id="svg_2_226_" x="310" y="244.1" fill="#E9DAC4" width="3.3" height="8.3"/>
<rect id="svg_2_225_" x="316.6" y="244.1" fill="#E9DAC4" width="3.3" height="8.3"/>
<rect id="svg_2_224_" x="323.3" y="244.1" fill="#E9DAC4" width="3.3" height="8.3"/>
<g>
	<text transform="matrix(1 0 0 1 266.3887 327.1182)" enable-background="new    "><tspan x="0" y="0" fill="#AF1F23" font-family="'Futura-Medium'" font-size="24">open</tspan><tspan x="55.3" y="0" fill="#1A6596" font-family="'Futura-Medium'" font-size="24">pnp</tspan></text>
	<line fill="none" stroke="#FFFFFF" stroke-width="3" x1="273.3" y1="320.7" x2="273.3" y2="333.6"/>
</g>
<g>
	<line fill="none" stroke="#2FB44A" stroke-miterlimit="10" x1="303.4" y1="268.9" x2="326.6" y2="268.9"/>
	<line fill="none" stroke="#2FB44A" stroke-miterlimit="10" x1="315" y1="280.5" x2="315" y2="257.3"/>
</g>
<g>
	<rect id="svg_2_16_" x="424.3" y="257.1" fill="#1A6596" width="8.3" height="3.3"/>
	<rect id="svg_2_15_" x="424.3" y="263.8" fill="#1A6596" width="8.3" height="3.3"/>
	<rect id="svg_2_14_" x="424.3" y="270.4" fill="#1A6596" width="8.3" height="3.3"/>
	<rect id="svg_2_13_" x="424.3" y="277" fill="#1A6596" width="8.3" height="3.3"/>
	<rect id="svg_2_12_" x="465.6" y="257.1" fill="#1A6596" width="8.3" height="3.3"/>
	<rect id="svg_2_11_" x="465.6" y="263.8" fill="#1A6596" width="8.3" height="3.3"/>
	<rect id="svg_2_10_" x="465.6" y="270.4" fill="#1A6596" width="8.3" height="3.3"/>
	<rect id="svg_2_9_" x="465.6" y="277" fill="#1A6596" width="8.3" height="3.3"/>
	<rect id="svg_2_8_" x="437.5" y="285.2" fill="#1A6596" width="3.3" height="8.3"/>
	<rect id="svg_2_7_" x="444.1" y="285.2" fill="#1A6596" width="3.3" height="8.3"/>
	<rect id="svg_2_6_" x="450.7" y="285.2" fill="#1A6596" width="3.3" height="8.3"/>
	<rect id="svg_2_5_" x="457.4" y="285.2" fill="#1A6596" width="3.3" height="8.3"/>
	<rect id="svg_2_4_" x="437.5" y="243.9" fill="#1A6596" width="3.3" height="8.3"/>
	<rect id="svg_2_3_" x="444.1" y="243.9" fill="#1A6596" width="3.3" height="8.3"/>
	<rect id="svg_2_2_" x="450.7" y="243.9" fill="#1A6596" width="3.3" height="8.3"/>
	<rect id="svg_2_1_" x="457.4" y="243.9" fill="#1A6596" width="3.3" height="8.3"/>
</g>
<g>
	<g>
		<line fill="none" stroke="#AF1F23" stroke-miterlimit="10" x1="437.5" y1="268.7" x2="460.7" y2="268.7"/>
		<line fill="none" stroke="#AF1F23" stroke-miterlimit="10" x1="449.1" y1="280.3" x2="449.1" y2="257.1"/>
	</g>
</g>
<g>
	<text transform="matrix(1 0 0 1 400.6543 314.709)" enable-background="new    "><tspan x="0" y="0" fill="#AF1F23" font-family="'Futura-Medium'" font-size="24">open</tspan><tspan x="55.3" y="0" fill="#1A6596" font-family="'Futura-Medium'" font-size="24">pnp</tspan></text>
	<line fill="none" stroke="#FFFFFF" stroke-width="3" x1="407.6" y1="308.3" x2="407.6" y2="321.1"/>
</g>
</svg>
